<?xml version="1.0" standalone="no"?>
<!DOCTYPE svg PUBLIC "-//W3C//DTD SVG 1.1//EN" "http://www.w3.org/Graphics/SVG/1.1/DTD/svg11.dtd">
<svg xmlns="http://www.w3.org/2000/svg" width="488" height="486" viewBox="0 0 488 486"><path fill-rule="evenodd" d="M74.737 20.864C66.174 24.987 61.59 32.182 61.59 41.5c0 13.089 9.037 21.933 22.41 21.933 9.363 0 13.877-2.674 19.574-11.593l2.337-3.66 16.045-.129 16.044-.13V92h-3.951c-10.83 0-22.096 4.433-30.266 11.908C94.531 112.375 89 124.461 89 136.21V141H45v-31.71l4.504-2.847c8.61-5.442 12.675-14.597 10.6-23.871C57.598 71.375 49.429 64.8 38.023 64.8c-7.35 0-13.048 2.886-17.665 8.947-7.86 10.319-4.438 26.61 6.877 32.732l3.658 1.98.304 21.36c.299 21.073.335 21.387 2.664 23.271 2.19 1.772 4.266 1.91 28.761 1.91h26.4l-.261 41.75-.261 41.75-13.384.167c-7.362.092-13.958-.053-14.659-.322-.7-.269-1.827-1.824-2.503-3.457-2.57-6.203-12.231-11.902-20.147-11.882-7.668.018-16.537 6.02-19.941 13.494-5.291 11.617.956 25.758 13.449 30.444 3.525 1.322 9.107 1.344 13.75.054 4.259-1.183 11.397-7.056 13.487-11.098l1.499-2.9H89v83l-25.25.014c-13.888.007-26.281.289-27.54.627-4.527 1.213-5.21 4.657-5.21 26.289v20.029l-3.75 1.914c-4.718 2.408-6.615 4.507-9.173 10.145-9.99 22.023 17.813 41.933 35.77 25.615 5.945-5.402 8.411-15.403 5.736-23.265-2.014-5.92-4.733-9.276-10.333-12.754L45 381.975V350h44v5.845c0 14.807 9.902 30.578 23.846 37.98 5.765 3.06 14.485 5.175 21.338 5.175H138v44h-31.975l-2.639-4.25c-3.478-5.6-6.834-8.319-12.754-10.333-14.483-4.928-29.115 5.707-29.006 21.083.117 16.644 16.362 27.224 31.356 20.423 5.62-2.549 7.737-4.455 10.108-9.102l1.878-3.678 21.606-.322c21.32-.317 21.631-.352 23.516-2.682 1.772-2.19 1.91-4.266 1.91-28.75V399h83v28.949l-2.9 1.499c-3.874 2.004-9.768 9.017-11.185 13.31-1.815 5.498-.686 13.46 2.679 18.903 7.936 12.837 27.55 13.719 36.663 1.65 7.458-9.877 5.362-24.349-4.534-31.307-2.323-1.633-4.798-3.456-5.501-4.052-.948-.804-1.206-4.609-1-14.767l.278-13.685 41.75-.261 41.75-.261v26.4c0 24.495.138 26.571 1.91 28.761 1.885 2.33 2.192 2.365 23.401 2.665l21.491.305 1.237 2.985c1.643 3.967 8.011 9.305 12.819 10.745 8.165 2.447 15.677.963 21.84-4.312 4.82-4.126 7.455-10.094 7.51-17.008.078-9.829-6.069-18.212-15.382-20.978-6.426-1.908-8.491-1.923-13.663-.099-5.695 2.01-9.393 4.971-12.657 10.134L378.71 443H347v-44h4.79c9.558 0 22.111-4.837 29.21-11.256 8.226-7.439 13.711-18.985 14.722-30.994l.568-6.75H440v31.996l-4.633 2.884c-11.051 6.878-14.515 20.589-7.863 31.126 3.119 4.942 6.523 7.51 12.649 9.545 14.772 4.906 30.15-7.634 28.537-23.269-.746-7.223-4.58-13.547-10.217-16.85L454 382.81v-19.256c0-19.919-.744-24.811-4.039-26.575-1.059-.567-12.805-.979-27.895-.979H396v-83h28.71l2.709 4.285c7.548 11.942 24.598 14.171 34.48 4.509 4.405-4.306 6.166-8.021 6.824-14.398.753-7.299-1.614-13.25-7.24-18.202-6.858-6.036-13.16-7.37-22.175-4.693-5.262 1.563-12.359 7.933-13.762 12.353-.655 2.064-1.233 2.146-15.113 2.146H396v-84h26.389c24.487 0 26.56-.138 28.75-1.911 2.332-1.886 2.364-2.172 2.599-23.067l.238-21.157 4.725-3.182c3.248-2.188 5.627-4.902 7.608-8.683 2.489-4.748 2.815-6.286 2.382-11.25-.953-10.928-8.16-18.996-18.417-20.618-10.286-1.626-19.647 3.178-23.872 12.251-5.215 11.2-.902 24.222 9.848 29.735l3.75 1.923V141h-44l-.012-4.75c-.027-10.947-5.016-22.378-13.439-30.794C374.021 96.934 362.434 92 350.951 92H347V48h31.629l3.936 5.673c5.211 7.514 9.687 9.832 18.935 9.81 5.914-.014 7.658-.442 11.24-2.756 2.332-1.507 5.482-4.616 7-6.91 2.446-3.697 2.76-5.097 2.76-12.317 0-7.196-.318-8.627-2.728-12.268-3.562-5.383-10.188-9.213-17.187-9.935-4.656-.481-6.358-.153-10.996 2.116-4.696 2.297-10.511 8.052-11.807 11.684-.155.436-9.952 1.013-21.772 1.284-20.555.471-21.566.587-23.25 2.667C333.179 39 333 41.909 333 65.611V92h-82.767l-.603-2.25c-.752-2.807-.794-18.538-.057-21.283.301-1.118 2.553-3.302 5.005-4.853 5.656-3.578 9.384-9.849 10.125-17.029.48-4.647.153-6.359-2.092-10.947-5.646-11.541-18.687-16.168-30.056-10.665-15.882 7.689-16.836 30.559-1.632 39.104 2.154 1.211 4.065 2.926 4.247 3.812s.189 6.674.018 12.861L234.875 92H152V65.611c0-23.671-.18-26.604-1.75-28.476-1.647-1.964-2.984-2.114-22.75-2.549-11.55-.255-21.27-.49-21.601-.524s-1.955-2.242-3.611-4.906c-5.301-8.527-18.693-12.558-27.551-8.292m3.619 14.506C72.602 40.32 76.404 50 84.101 50c7.176 0 10.63-9.565 5.253-14.548-3.354-3.108-7.445-3.138-10.998-.082m317.099.085C390.326 40.583 393.851 50 400.899 50c7.592 0 11.421-9.747 5.747-14.628-3.618-3.112-8.029-3.079-11.191.083m-159.382 4.18c-2.806 3.566-2.655 7.874.382 10.91C241.628 55.719 251 52.146 251 45c0-7.307-10.447-11.062-14.927-5.365M34.894 79.093C27.213 81.974 29.339 95 37.491 95c4.756 0 6.373-.836 8.109-4.194 3.721-7.195-3.037-14.588-10.706-11.713m409.376-.378c-3.042.571-6.27 4.929-6.27 8.465 0 4.168 3.97 7.82 8.5 7.82 7.318 0 11.082-8.049 6.25-13.363-2.447-2.692-5.006-3.573-8.48-2.922m-321.417 29.647c-6.74 2.782-10.226 5.39-13.912 10.407-6.298 8.573-6.017 2.248-5.716 128.731l.275 115 2.353 4.736c3.003 6.042 8.962 12.001 14.952 14.951l4.695 2.313h234l4.5-2.22c6.287-3.1 11.863-8.816 14.909-15.28l2.591-5.5V246c0-111.447-.067-115.674-1.917-120.472-2.519-6.532-9.375-13.734-15.869-16.67L358.5 106.5l-115-.235-115-.235zm69.417 19.636c-13.531 2.85-24.181 12.507-29.227 26.502-.789 2.188-2.308 3.506-5.613 4.87-6.322 2.609-14.517 10.421-17.617 16.793-3.25 6.683-5.132 15.618-4.264 20.248.593 3.16.225 4.039-3.432 8.193-12.672 14.397-14.505 35.733-4.439 51.678l2.477 3.924-2.675 7.147c-2.991 7.987-3.589 18.745-1.486 26.712 1.789 6.777 7.401 16.123 12.509 20.831 4.766 4.393 14.698 9.672 20.116 10.691 2.943.553 3.151.892 3.677 5.994 1.151 11.147 10.047 23.001 21.489 28.634 6.097 3.002 7.394 3.261 16.172 3.24 8.197-.02 10.355-.399 15.296-2.685 7.364-3.408 16.048-11.621 19.2-18.161 4.486-9.305 4.651-13.161 4.34-101.109l-.293-83-2.334-5.782c-4.286-10.618-13.57-19.958-23.054-23.194-5.683-1.938-15.48-2.656-20.842-1.526m83.73.372c-11.102 3.25-21.258 11.3-25.962 20.578-4.058 8.002-4.179 11.155-3.852 100.052l.314 85.5 3.133 6.5c3.959 8.214 10.878 15.141 19.227 19.252 5.947 2.927 7.342 3.206 16.076 3.213 8.95.008 10.006-.216 16.439-3.478 11.778-5.974 19.854-17.168 21.358-29.605.489-4.051.591-4.144 6.198-5.703 11.617-3.23 22.734-13.156 28.202-25.179 1.932-4.249 2.28-6.727 2.315-16.5.038-10.451-.199-11.985-2.59-16.818l-2.631-5.317 3.346-5.556c9.195-15.27 7.849-33.811-3.533-48.661-4.685-6.113-4.774-6.365-5.217-14.792-.357-6.803-1.042-9.789-3.321-14.464-3.529-7.24-11.371-15.086-18.302-18.313-2.86-1.331-5.2-2.947-5.2-3.59 0-2.974-6.507-13.702-10.597-17.472-9.526-8.781-24.462-12.851-35.403-9.647m-81.5 13.536c-1.65.418-4.384 1.481-6.075 2.362-3.149 1.641-10.425 9.044-10.425 10.607 0 .478 1.885 1.171 4.189 1.539 5.164.826 14.678 5.794 18.265 9.538 3.488 3.64 3.752 8.653.592 11.212-3.321 2.689-6.194 2.267-11.347-1.668-5.993-4.576-8.619-5.496-15.681-5.496-14.304 0-24.257 10.073-24.265 24.558-.004 7.096 1.453 10.355 7.845 17.553 3.768 4.242 4.444 5.587 3.902 7.76-1.948 7.806-7.469 8.163-15.071.973-2.998-2.835-5.616-4.973-5.817-4.75s-1.389 2.431-2.639 4.906c-3.413 6.758-3.814 16.175-.969 22.788 2.127 4.945 4.111 6.453 5.51 4.19 1.36-2.201 12.624-6.962 18.807-7.949 7.596-1.214 11.153-.277 12.818 3.377 2.595 5.695-2.22 10.594-10.411 10.594-7.702 0-18.736 8.401-22.806 17.363-2.585 5.694-2.582 16.932.008 22.974 4.425 10.322 13.788 16.812 25.229 17.486 8.019.473 11.921-.702 19.551-5.885 7.905-5.37 12.857-5.029 14.776 1.018 1.575 4.962-7.231 13.232-17.991 16.896l-5.995 2.041.085 4.042c.12 5.676 5.238 12.887 11.799 16.624 10.699 6.092 24.488 2.808 31.431-7.486 1.696-2.515 3.575-6.598 4.176-9.073.757-3.119 1.003-29.82.801-87-.321-90.749.027-85.723-6.453-93.009-5.836-6.563-16.1-10.044-23.839-8.085m84.775.065c-6.21 1.475-13.17 7.143-16.617 13.529-2.155 3.994-2.158 4.13-2.449 87.5-.206 59.008.036 84.817.824 87.989 1.54 6.195 7.351 13.484 12.906 16.191 6.88 3.351 16.11 3.173 22.237-.429 2.572-1.512 6.015-4.372 7.65-6.356 3.053-3.704 5.802-11.317 4.918-13.62-.273-.712-2.69-1.879-5.37-2.595-9.263-2.471-19.374-10.695-19.374-15.757 0-3.367 3.374-6.423 7.091-6.423 2.078 0 4.411 1.129 7.117 3.446 5.142 4.401 11.508 6.554 19.383 6.554 5.085 0 7.397-.602 12.541-3.265 11.134-5.764 16.747-16.099 15.602-28.729-.665-7.333-3.078-12.39-8.506-17.825-4.988-4.995-9.143-6.956-17.63-8.323-7.183-1.157-9.598-3.008-9.598-7.358 0-5.772 4.81-7.989 13.884-6.398 6.951 1.218 10.279 2.477 16.416 6.211 2.64 1.606 4.914 2.755 5.054 2.554 2.367-3.425 4.133-10.313 4.059-15.836-.08-6.071-3.017-15.05-5.404-16.526-.418-.258-3.001 1.773-5.741 4.513-5.949 5.948-9.821 6.637-13.195 2.347-3.04-3.864-2.612-5.632 2.885-11.914 6.149-7.027 7.433-10.746 6.793-19.681-.398-5.565-1.075-7.771-3.405-11.085-6.741-9.592-20.741-13.572-30.433-8.652-2.427 1.232-5.685 3.304-7.24 4.604-5.059 4.23-10.606 2.515-12.173-3.764-.515-2.066.015-3.39 2.485-6.203 3.386-3.856 13.14-9.228 18.626-10.257 4.755-.892 4.381-3.37-1.257-8.333-6.627-5.833-14.303-7.957-22.079-6.109M34.5 238.155c-3.173 1.735-4.5 3.971-4.5 7.584 0 4.228 4.014 8.261 8.223 8.261 3.788 0 8.777-4.832 8.777-8.5 0-3.333-4.997-8.511-8.173-8.47-1.28.017-3.227.523-4.327 1.125m407.821.034c-2.754 1.331-4.738 6.015-3.922 9.264.89 3.548 4.494 6.547 7.866 6.547 3.745 0 8.735-4.856 8.735-8.5 0-3.359-5.007-8.524-8.173-8.432-1.28.037-3.307.541-4.506 1.121M32.635 398.073c-2.01 1.581-2.635 2.962-2.635 5.825 0 7.85 9.583 11.613 14.63 5.746 3.065-3.564 3-6.742-.219-10.567-3.136-3.728-7.808-4.126-11.776-1.004m408.589-.277c-6.037 4.646-2.439 14.604 5.276 14.604 7.362 0 11.041-8.367 6.048-13.754-2.914-3.144-7.861-3.515-11.324-.85M78.356 443.37c-5.688 4.893-2.117 14.63 5.366 14.63 6.274 0 10.695-8.27 6.996-13.087-3.319-4.323-8.394-4.956-12.362-1.543m158.567.553c-6.86 6.86.318 16.992 9.532 13.456 1.977-.759 4.545-5.508 4.545-8.406 0-3.024-5.276-7.973-8.5-7.973-1.6 0-3.815 1.161-5.577 2.923m160.379-1.949c-1.208.508-2.853 2.192-3.655 3.742-4.205 8.132 5.478 15.906 12.718 10.211 3.19-2.509 3.638-8.497.885-11.813-2.031-2.446-6.784-3.468-9.948-2.14"/></svg>